<?xml version="1.0" encoding="utf-8"?>
<!-- Generator: Adobe Illustrator 25.0.0, SVG Export Plug-In . SVG Version: 6.00 Build 0)  -->
<svg version="1.1" id="Layer_1" xmlns="http://www.w3.org/2000/svg" xmlns:xlink="http://www.w3.org/1999/xlink" x="0px" y="0px"
	 viewBox="0 0 120 28" style="enable-background:new 0 0 120 28;" xml:space="preserve">
<style type="text/css">
	.st0{fill:#FFFFFF;}
	.st1{fill:#3838A0;}
</style>
<g>
	<path class="st0" d="M23.39,6.01c3.32,0,4.99,2.57,4.99,5.15s-1.67,5.13-4.99,5.13H20v5.13h-2.24V6.01H23.39z M23.39,14.09
		c1.87,0,2.79-1.45,2.79-2.9c0-1.47-0.92-2.93-2.79-2.93H20v5.83H23.39z"/>
	<path class="st0" d="M32.44,13.6h2.6c1.87,0,2.79-1.34,2.79-2.68c0-1.32-0.92-2.66-2.79-2.66h-3.41v13.16h-2.2V6.01h5.61
		c3.34,0,5.02,2.46,5.02,4.91c0,2.18-1.34,4.25-3.98,4.71l4.86,5.79h-2.88l-5.61-6.76V13.6z"/>
	<path class="st0" d="M42.88,8.14c1.41-1.43,3.39-2.33,5.54-2.33c2.18,0,4.14,0.9,5.57,2.33c1.39,1.43,2.29,3.39,2.29,5.57
		s-0.9,4.14-2.29,5.57c-1.43,1.45-3.39,2.33-5.57,2.33c-2.16,0-4.14-0.88-5.54-2.33c-1.39-1.43-2.29-3.39-2.29-5.57
		S41.5,9.57,42.88,8.14z M52.41,9.73c-1.03-1.03-2.46-1.67-3.98-1.67s-2.93,0.64-3.94,1.67c-1.01,1.01-1.65,2.42-1.65,3.98
		c0,1.56,0.64,2.97,1.65,3.98c1.01,1.03,2.42,1.67,3.94,1.67s2.95-0.64,3.98-1.67c0.99-1.01,1.63-2.4,1.63-3.98
		C54.04,12.13,53.4,10.74,52.41,9.73z"/>
	<path class="st1" d="M59.87,12.52h6.51V6.03h2.25v15.38h-2.25v-6.69h-6.51v6.69h-2.22V6.03h2.22V12.52z"/>
	<path class="st1" d="M72.21,19.19h7.15v2.22h-9.4V6.03h9.37v2.22h-7.13v4.33h6.97v2.24h-6.97V19.19z"/>
	<path class="st1" d="M83.39,13.6h2.6c1.87,0,2.79-1.34,2.79-2.68c0-1.32-0.92-2.66-2.79-2.66h-3.41v13.16h-2.2V6.01h5.61
		c3.34,0,5.02,2.46,5.02,4.91c0,2.18-1.34,4.25-3.98,4.71l4.86,5.79H89l-5.61-6.76V13.6z"/>
	<path class="st1" d="M93.83,8.14c1.41-1.43,3.39-2.33,5.54-2.33c2.18,0,4.14,0.9,5.57,2.33c1.39,1.43,2.29,3.39,2.29,5.57
		s-0.9,4.14-2.29,5.57c-1.43,1.45-3.39,2.33-5.57,2.33c-2.16,0-4.14-0.88-5.54-2.33c-1.39-1.43-2.29-3.39-2.29-5.57
		S92.45,9.57,93.83,8.14z M103.36,9.73c-1.03-1.03-2.46-1.67-3.98-1.67s-2.93,0.64-3.94,1.67c-1.01,1.01-1.65,2.42-1.65,3.98
		c0,1.56,0.64,2.97,1.65,3.98c1.01,1.03,2.42,1.67,3.94,1.67s2.95-0.64,3.98-1.67c0.99-1.01,1.63-2.4,1.63-3.98
		C104.99,12.13,104.35,10.74,103.36,9.73z"/>
</g>
<g>
</g>
<g>
</g>
<g>
</g>
<g>
</g>
<g>
</g>
<g>
</g>
</svg>
