<?xml version="1.0" encoding="utf-8"?>
<!-- Generator: Adobe Illustrator 25.0.0, SVG Export Plug-In . SVG Version: 6.00 Build 0)  -->
<svg version="1.1" id="Layer_1" xmlns="http://www.w3.org/2000/svg" xmlns:xlink="http://www.w3.org/1999/xlink" x="0px" y="0px"
	 viewBox="0 0 120 28" style="enable-background:new 0 0 120 28;" xml:space="preserve">
<style type="text/css">
	.st0{fill:#FFFFFF;}
	.st1{fill:#0071CE;}
</style>
<g>
	<path class="st0" d="M15.15,5.3c3.77,0,5.67,2.92,5.67,5.85s-1.9,5.82-5.67,5.82H11.3v5.82H8.75V5.3H15.15z M15.15,14.48
		c2.12,0,3.17-1.65,3.17-3.3c0-1.67-1.05-3.32-3.17-3.32H11.3v6.62H15.15z"/>
	<path class="st0" d="M25.42,13.93h2.95c2.12,0,3.17-1.52,3.17-3.05c0-1.5-1.05-3.02-3.17-3.02H24.5V22.8H22V5.3h6.37
		c3.8,0,5.7,2.8,5.7,5.57c0,2.47-1.52,4.82-4.52,5.35l5.52,6.57H31.8l-6.37-7.67V13.93z"/>
	<path class="st0" d="M37.3,7.73c1.6-1.62,3.85-2.65,6.3-2.65c2.47,0,4.7,1.02,6.32,2.65c1.57,1.62,2.6,3.85,2.6,6.32
		s-1.02,4.7-2.6,6.32c-1.62,1.65-3.85,2.65-6.32,2.65c-2.45,0-4.7-1-6.3-2.65c-1.57-1.62-2.6-3.85-2.6-6.32S35.73,9.35,37.3,7.73z
		 M48.12,9.53c-1.17-1.17-2.8-1.9-4.52-1.9s-3.32,0.73-4.47,1.9c-1.15,1.15-1.87,2.75-1.87,4.52c0,1.77,0.72,3.37,1.87,4.52
		c1.15,1.17,2.75,1.9,4.47,1.9s3.35-0.72,4.52-1.9c1.12-1.15,1.85-2.72,1.85-4.52S49.25,10.68,48.12,9.53z"/>
	<path class="st1" d="M56.6,12.7H64V5.33h2.55V22.8H64v-7.6h-7.4v7.6h-2.52V5.33h2.52V12.7z"/>
	<path class="st1" d="M70.62,20.28h8.12v2.52H68.08V5.33h10.65v2.52h-8.1v4.92h7.92v2.55h-7.92V20.28z"/>
	<path class="st1" d="M83.32,13.93h2.95c2.12,0,3.17-1.52,3.17-3.05c0-1.5-1.05-3.02-3.17-3.02H82.4V22.8h-2.5V5.3h6.37
		c3.8,0,5.7,2.8,5.7,5.57c0,2.47-1.52,4.82-4.52,5.35l5.52,6.57H89.7l-6.37-7.67V13.93z"/>
	<path class="st1" d="M95.2,7.73c1.6-1.62,3.85-2.65,6.3-2.65c2.47,0,4.7,1.02,6.32,2.65c1.58,1.62,2.6,3.85,2.6,6.32
		s-1.02,4.7-2.6,6.32c-1.62,1.65-3.85,2.65-6.32,2.65c-2.45,0-4.7-1-6.3-2.65c-1.58-1.62-2.6-3.85-2.6-6.32S93.62,9.35,95.2,7.73z
		 M106.02,9.53c-1.17-1.17-2.8-1.9-4.52-1.9s-3.32,0.73-4.47,1.9c-1.15,1.15-1.88,2.75-1.88,4.52c0,1.77,0.73,3.37,1.88,4.52
		c1.15,1.17,2.75,1.9,4.47,1.9s3.35-0.72,4.52-1.9c1.12-1.15,1.85-2.72,1.85-4.52S107.15,10.68,106.02,9.53z"/>
</g>
<g>
</g>
<g>
</g>
<g>
</g>
<g>
</g>
<g>
</g>
<g>
</g>
</svg>
