<?xml version="1.0" encoding="utf-8"?>
<!-- Generator: Adobe Illustrator 25.0.0, SVG Export Plug-In . SVG Version: 6.00 Build 0)  -->
<svg version="1.1" id="Layer_1" xmlns="http://www.w3.org/2000/svg" xmlns:xlink="http://www.w3.org/1999/xlink" x="0px" y="0px"
	 viewBox="0 0 120 28" style="enable-background:new 0 0 120 28;" xml:space="preserve">
<style type="text/css">
	.st0{fill:#FFFFFF;}
	.st1{fill:#0071CE;}
</style>
<g>
	<path class="st0" d="M39.65,14.81c-0.96,2.74-2.04,5.54-2.9,8.09h-1.7L29.4,6.02h2.52l4.01,12.12l2.76-7.85h1.94l2.74,7.82
		c1.32-4.01,2.78-8.28,4.03-12.1h2.54L44.3,22.9h-1.7L39.65,14.81z"/>
	<path class="st0" d="M54.21,13.22h2.52c1.68,0,2.3-1.39,2.3-2.5c0-1.68-1.61-2.45-3.19-2.45c-1.27,0-2.57,0.72-2.88,2.02
		l-2.18-0.53c0.6-2.54,2.83-3.79,5.06-3.79c2.71,0,5.57,1.49,5.59,4.75c0,1.32-0.31,2.69-1.54,3.5c1.51,0.89,2.18,2.26,2.16,3.91
		c-0.02,2.42-2.04,4.87-6.07,4.87c-3.6,0-5.3-2.09-5.69-4.39l2.26-0.41c0.22,1.34,1.32,2.54,3.43,2.54c2.66,0,3.91-1.46,3.79-2.86
		c-0.1-0.98-0.86-2.4-3.05-2.4h-2.52V13.22z"/>
	<path class="st1" d="M65.45,8.33c1.54-1.56,3.7-2.54,6.05-2.54c2.38,0,4.51,0.98,6.07,2.54c1.51,1.56,2.5,3.7,2.5,6.07
		s-0.98,4.51-2.5,6.07c-1.56,1.58-3.7,2.54-6.07,2.54c-2.35,0-4.51-0.96-6.05-2.54c-1.51-1.56-2.5-3.7-2.5-6.07
		S63.93,9.89,65.45,8.33z M75.84,10.06c-1.13-1.13-2.69-1.82-4.34-1.82c-1.66,0-3.19,0.7-4.3,1.82c-1.1,1.1-1.8,2.64-1.8,4.34
		s0.7,3.24,1.8,4.34c1.1,1.13,2.64,1.82,4.3,1.82c1.66,0,3.22-0.7,4.34-1.82c1.08-1.1,1.78-2.62,1.78-4.34
		C77.62,12.67,76.92,11.16,75.84,10.06z"/>
	<path class="st1" d="M81.57,22.8V5.97L83.45,6l8.18,11.83V6h2.4v16.8h-1.92L84,11.06V22.8H81.57z"/>
	<path class="st1" d="M98.04,20.38h7.8v2.42H95.59V6.02h10.22v2.42h-7.78v4.73h7.61v2.45h-7.61V20.38z"/>
</g>
<path class="st1" d="M25.18,10.62c0-1.46-1.19-2.65-2.65-2.65s-2.65,1.19-2.65,2.65c0,1.2,0.8,2.22,1.9,2.54
	c-0.02,0.53-0.14,0.94-0.36,1.22c-0.51,0.64-1.63,0.74-2.82,0.85c-0.93,0.09-1.9,0.18-2.69,0.56v-4.77
	c1.08-0.34,1.85-1.34,1.85-2.53c0-1.46-1.19-2.65-2.65-2.65s-2.65,1.19-2.65,2.65c0,1.19,0.78,2.19,1.85,2.53v6.6
	c-1.08,0.34-1.85,1.34-1.85,2.53c0,1.46,1.19,2.65,2.65,2.65s2.65-1.19,2.65-2.65c0-1.13-0.7-2.09-1.69-2.47
	c0.1-0.17,0.26-0.32,0.49-0.44c0.54-0.27,1.34-0.34,2.19-0.42c1.4-0.13,2.98-0.28,3.91-1.44c0.46-0.58,0.7-1.32,0.71-2.25
	C24.42,12.77,25.18,11.78,25.18,10.62L25.18,10.62z M15.11,7.97c0.29,0,0.53,0.24,0.53,0.53s-0.24,0.53-0.53,0.53
	c-0.29,0-0.53-0.24-0.53-0.53S14.82,7.97,15.11,7.97z M15.11,20.68c-0.29,0-0.53-0.24-0.53-0.53s0.24-0.53,0.53-0.53
	c0.29,0,0.53,0.24,0.53,0.53S15.41,20.68,15.11,20.68z M22.53,10.09c0.29,0,0.53,0.24,0.53,0.53s-0.24,0.53-0.53,0.53
	S22,10.91,22,10.62S22.24,10.09,22.53,10.09z"/>
<g>
</g>
<g>
</g>
<g>
</g>
<g>
</g>
<g>
</g>
<g>
</g>
</svg>
